<svg xmlns="http://www.w3.org/2000/svg" width="1639.213" height="35.656"><g id="Group_28" data-name="Group 28" transform="translate(409.54 -57.599)"><g id="Group_27" data-name="Group 27" transform="translate(19.46 74.315)"><path id="Rectangle_8" data-name="Rectangle 8" transform="translate(-429)" fill="#c5a9a6" d="M0 0h1639.213v2.758H0z"/></g><path id="Rectangle_9" data-name="Rectangle 9" transform="translate(330.77 70.542)" fill="#fff" d="M0 0h157.77v9.118H0z"/><path id="Path_13" data-name="Path 13" d="M89.483 66.428a17.3 17.3 0 019.138-7.987c6.1-2.089 12.668-.029 16.69 3.336A20.051 20.051 0 01121.9 72.6a17.968 17.968 0 01.551 4.748 13.709 13.709 0 00-.319-4.458 17.972 17.972 0 00-5.609-9.941 15.6 15.6 0 00-14.534-3.3 15.876 15.876 0 00-10.427 13.673A17.149 17.149 0 0099.5 88.746a15.107 15.107 0 0013.731.841 14.534 14.534 0 006.788-6.624 16.679 16.679 0 001.276-3.394 11.448 11.448 0 01-1.112 3.771 16.751 16.751 0 01-7.214 7.929 17.247 17.247 0 01-15.762.155 18.778 18.778 0 01-7.724-7.824 18.7 18.7 0 01-7.717 7.823 17.226 17.226 0 01-15.752-.155 16.729 16.729 0 01-7.223-7.929 11.447 11.447 0 01-1.112-3.771 16.175 16.175 0 001.267 3.394 14.656 14.656 0 006.8 6.624 15.108 15.108 0 0013.731-.841 17.169 17.169 0 007.939-15.424 15.891 15.891 0 00-10.427-13.672 15.62 15.62 0 00-14.544 3.3 18.008 18.008 0 00-5.6 9.941 13.935 13.935 0 00-.329 4.458 18.868 18.868 0 01.561-4.748 20.111 20.111 0 016.585-10.821c4.023-3.365 10.589-5.425 16.69-3.336a17.286 17.286 0 019.131 7.985zM58.626 78.883c.077-.048.309.948 1.228 2.495a11.464 11.464 0 005.56 4.767 11.934 11.934 0 0010.7-1.228 13.557 13.557 0 005.657-12.523 12.682 12.682 0 00-9.012-10.463A12.915 12.915 0 0060.985 65.3a15.957 15.957 0 00-4.458 12.2 11.234 11.234 0 01.126-3.974 16.9 16.9 0 014.98-9.486A15.176 15.176 0 0175.6 60.3a14.836 14.836 0 0110.382 12.732 15.727 15.727 0 01-7.542 14.525 14.08 14.08 0 01-12.871.455 13.261 13.261 0 01-6.024-6.131 7.026 7.026 0 01-.919-3zm61.714 0a6.907 6.907 0 01-.909 3 13.2 13.2 0 01-6.034 6.131 14.08 14.08 0 01-12.871-.455 15.72 15.72 0 01-7.533-14.524A14.826 14.826 0 01103.369 60.3a15.2 15.2 0 0113.973 3.742 16.879 16.879 0 014.97 9.486 11.426 11.426 0 01.135 3.974 14.917 14.917 0 00-.193-3.752 15.193 15.193 0 00-4.264-8.45 12.922 12.922 0 00-11.768-3.365 12.682 12.682 0 00-9.012 10.463 13.537 13.537 0 005.657 12.523 11.912 11.912 0 0010.685 1.228 11.374 11.374 0 005.56-4.767c.928-1.552 1.16-2.548 1.228-2.499z" transform="translate(320.443)" fill="#c5a9a6"/><path id="Path_14" data-name="Path 14" d="M71.527 63.531a9.929 9.929 0 015.251-4.584 10.234 10.234 0 019.6 1.905 11.56 11.56 0 013.791 6.237 11.02 11.02 0 01.319 2.717 8 8 0 00-.184-2.553 10.424 10.424 0 00-3.23-5.725 8.937 8.937 0 00-8.355-1.886 9.09 9.09 0 00-6 7.852 9.869 9.869 0 004.564 8.877 8.683 8.683 0 007.9.474 8.376 8.376 0 003.907-3.81 9.878 9.878 0 00.735-1.944 6.914 6.914 0 01-.638 2.166 9.73 9.73 0 01-4.158 4.564 9.887 9.887 0 01-9.061.087 10.782 10.782 0 01-4.448-4.5 10.706 10.706 0 01-4.439 4.5 9.888 9.888 0 01-9.061-.087 9.65 9.65 0 01-4.148-4.564 6.3 6.3 0 01-.638-2.166 9.125 9.125 0 00.735 1.944 8.33 8.33 0 003.907 3.81 8.664 8.664 0 007.891-.474 9.869 9.869 0 004.57-8.871 9.09 9.09 0 00-6-7.852 8.937 8.937 0 00-8.355 1.886 10.424 10.424 0 00-3.23 5.725 8 8 0 00-.184 2.553 10.452 10.452 0 01.319-2.717 11.62 11.62 0 013.791-6.237 10.226 10.226 0 019.593-1.905 9.86 9.86 0 015.256 4.578zM53.782 70.7c.039-.019.184.551.706 1.431a6.624 6.624 0 003.2 2.746 6.841 6.841 0 006.15-.716 7.765 7.765 0 003.249-7.194 7.272 7.272 0 00-5.183-6.015 7.4 7.4 0 00-6.759 1.934 8.782 8.782 0 00-2.466 4.864 8.893 8.893 0 00-.106 2.156 6.737 6.737 0 01.077-2.292 9.708 9.708 0 012.862-5.454 8.743 8.743 0 018.036-2.147 8.516 8.516 0 015.966 7.32 9.039 9.039 0 01-4.332 8.355 8.092 8.092 0 01-7.407.261 7.6 7.6 0 01-3.462-3.529 4.11 4.11 0 01-.532-1.721zm35.489 0a3.874 3.874 0 01-.513 1.721 7.627 7.627 0 01-3.472 3.529 8.072 8.072 0 01-7.4-.261 9.046 9.046 0 01-4.342-8.355 8.516 8.516 0 015.966-7.32 8.743 8.743 0 018.036 2.147 9.647 9.647 0 012.862 5.454 6.737 6.737 0 01.082 2.285 9.571 9.571 0 00-.106-2.156 8.759 8.759 0 00-2.456-4.864 7.428 7.428 0 00-6.769-1.934 7.3 7.3 0 00-5.193 6.015 7.812 7.812 0 003.259 7.194 6.841 6.841 0 006.15.716 6.624 6.624 0 003.2-2.746 11.015 11.015 0 00.696-1.425z" transform="translate(286.597 7.451)" fill="#c5a9a6"/><path id="Path_15" data-name="Path 15" d="M87.551 58.845a10.251 10.251 0 019.593 1.9 11.573 11.573 0 013.791 6.228 10.019 10.019 0 01.319 2.727 7.652 7.652 0 00-.184-2.553 10.394 10.394 0 00-3.23-5.725 8.971 8.971 0 00-8.355-1.9 9.131 9.131 0 00-6 7.862 9.9 9.9 0 004.564 8.877 8.716 8.716 0 007.9.483 8.357 8.357 0 003.9-3.82 8.919 8.919 0 00.745-1.944 6.5 6.5 0 01-.648 2.166 9.642 9.642 0 01-4.146 4.575 9.917 9.917 0 01-9.061.087 10.706 10.706 0 01-4.439-4.5 10.782 10.782 0 01-4.448 4.5 9.9 9.9 0 01-9.051-.087 9.671 9.671 0 01-4.158-4.564A6.81 6.81 0 0164 70.991a9.636 9.636 0 00.745 1.944 8.34 8.34 0 003.907 3.82 8.7 8.7 0 007.891-.483 9.86 9.86 0 004.557-8.878 9.121 9.121 0 00-5.986-7.862 8.984 8.984 0 00-8.365 1.9 10.31 10.31 0 00-3.22 5.725 7.873 7.873 0 00-.193 2.553 11.112 11.112 0 01.319-2.727 11.573 11.573 0 013.791-6.228 10.265 10.265 0 019.6-1.9 9.929 9.929 0 015.254 4.574 9.86 9.86 0 015.251-4.584zm12.494 11.749a3.933 3.933 0 01-.532 1.721 7.5 7.5 0 01-3.462 3.52 8.059 8.059 0 01-7.407-.251 9.076 9.076 0 01-4.332-8.355 8.542 8.542 0 015.966-7.32 8.744 8.744 0 018.036 2.147 9.647 9.647 0 012.862 5.454 6.449 6.449 0 01.077 2.292 8.891 8.891 0 00-.106-2.156 8.752 8.752 0 00-2.466-4.864 7.393 7.393 0 00-6.759-1.934 7.272 7.272 0 00-5.183 6.015A7.752 7.752 0 0090 74.056a6.839 6.839 0 006.15.716 6.594 6.594 0 003.191-2.746 14.642 14.642 0 00.706-1.431zm-34.793 1.432a6.67 6.67 0 003.2 2.746 6.843 6.843 0 006.15-.716 7.792 7.792 0 003.259-7.195 7.282 7.282 0 00-5.193-6.015 7.4 7.4 0 00-6.759 1.934 8.666 8.666 0 00-2.456 4.864 9.315 9.315 0 00-.116 2.156 6.754 6.754 0 01.077-2.292 9.647 9.647 0 012.862-5.454 8.743 8.743 0 018.036-2.147 8.528 8.528 0 015.966 7.32 9.058 9.058 0 01-4.332 8.355 8.06 8.06 0 01-7.407.251 7.542 7.542 0 01-3.462-3.52 3.822 3.822 0 01-.522-1.721 15.711 15.711 0 00.697 1.434z" transform="translate(379.921 6.577)" fill="#c5a9a6"/></g></svg>