<svg id="OBJECTS" xmlns="http://www.w3.org/2000/svg" viewBox="0 0 123.24 89.36"><defs><style>.cls-1{fill:#222544}.cls-2{fill:#525278}</style></defs><path class="cls-1" d="M80.71 23.57q10.46-.27 20.91-.41c7-.07 13.94-.2 20.91-.21h.62v.62c0 9.88.13 19.76.07 29.65s0 19.77-.18 29.65v.51h-.5l-14.54-.2-14.56-.31 14.56-.32 14.56-.19-.5.51c-.16-9.88-.12-19.77-.18-29.65s.05-19.77.07-29.65l.61.62c-7 0-13.94-.15-20.91-.22s-13.97-.22-20.94-.4zm-52.19 59.3l-13.91.29-13.91.19H.23v-.49C.17 77.93.09 73 .09 68L0 53.22c0-9.89.05-19.77.07-29.65v-.64H.7c7.62 0 15.24.13 22.86.21s15.24.24 22.85.43c-7.61.18-15.23.35-22.85.42S8.32 24.2.7 24.2l.64-.63c0 9.88.11 19.76 0 29.65L1.32 68c0 4.95-.08 9.89-.13 14.83l-.49-.44 13.91.18z" transform="translate(0 -8.25)"/><path class="cls-1" d="M58.91 31.58l5.09-.15c2.14 0 3.57.46 4.28 1.38a1.83 1.83 0 01.58 1.19 1.6 1.6 0 01-.39 1.07c-.61.76-1.76 1.15-3.44 1.15a10.58 10.58 0 01-7.72-3.37 17.34 17.34 0 00-13 9.1 20.11 20.11 0 00-2.83 9.87 17 17 0 00.84 5.28q2.53 7.35 10.94 7.34a18.65 18.65 0 0013-5q5.51-5.05 5.5-10a4.8 4.8 0 00-2-3.94 8.68 8.68 0 00-4.29-1.83 33 33 0 00-3.82-.27 30.93 30.93 0 00-4.06.35 11.52 11.52 0 00-4.93 2A6.12 6.12 0 0049.73 51q0 3.29 5.13 6a1.12 1.12 0 01.65 1.18c-.08.49-.3.63-.65.42a17.2 17.2 0 01-6.81-5.89 7.06 7.06 0 01-1.38-3.59 6.11 6.11 0 01.39-2.37c.61-1.79 2.14-3.29 4.59-4.52A20.83 20.83 0 0161 40.38h13.52q4 0 9.79-2.68a10.53 10.53 0 004.13-3.06 3.57 3.57 0 00.15-3.75 1.79 1.79 0 01-.38-1.07.38.38 0 01.42-.3.65.65 0 01.57.38 6.88 6.88 0 011.08 3.48 5.07 5.07 0 01-1 3c-1.27 1.94-3.44 3.49-6.5 4.67a26.35 26.35 0 01-9.49 1.76h-.38a7.45 7.45 0 012.91 6c0 3.42-2 6.93-6 10.56a21.78 21.78 0 01-7.27 4.36 26.1 26.1 0 01-9.33 1.68q-11.85 0-16.75-6.89a11.55 11.55 0 01-2.45-6.65 17.32 17.32 0 011-6q2.67-7.26 10.78-11.24a31 31 0 0110.48-2.91 12.31 12.31 0 01-2.1-7.5q0-4.5 3.94-8.49a23.33 23.33 0 019-5.77A29.58 29.58 0 0177 8.25a13.38 13.38 0 016.77 1.61A5.47 5.47 0 0186.6 15a6.17 6.17 0 01-1.37 3.94 3.94 3.94 0 01-3.1 1.72 3.73 3.73 0 01-2.76-1 3.51 3.51 0 01-1-2.56 3.45 3.45 0 013.44-3.52 3.87 3.87 0 011.76.42 1.74 1.74 0 011 1 5.79 5.79 0 00.07-.92 2.93 2.93 0 00-1.37-2.6 7.28 7.28 0 00-4.36-1.07 18.78 18.78 0 00-6.81 1.56 26 26 0 00-7.34 4.56 21.12 21.12 0 00-5.44 7.34 11.12 11.12 0 00-1.07 4.36 8.29 8.29 0 00.66 3.35zM67.56 34c0-.92-1.89-1.37-5.66-1.37-.77 0-1.56 0-2.38.07a6 6 0 004.94 2.3c2.06 0 3.1-.38 3.1-1z" transform="translate(0 -8.25)"/><path class="cls-2" d="M48.92 78.62c-3.25-.51-2.76 6.75-1.74 9.61 2.06-2.59 5.18-9.08 1.74-9.61zm13.72 3.68c3-2.17 7.67-8.35 4.85-10-3-1.69-5.07 6.57-4.85 10zm.24 7.64c1.64-3.08-5.43-4.81-9.16-4.82 1.72 2.66 7.33 8.24 9.16 4.82zm14.56-2.57c2.2-2.09-4.1-5.24-7.69-6.27.93 3.04 4.87 8.97 7.69 6.27zM88.39 81c-.25-2.81-7.44-1.34-10.31-.16 2.97 1.69 10.68 4.21 10.31.16z" transform="translate(0 -8.25)"/><path class="cls-2" d="M79.56 80.84a68.19 68.19 0 00-12.29.91 63.94 63.94 0 00-11.87 3.16 64.61 64.61 0 00-11 5.35 68.06 68.06 0 00-9.9 7.35 54 54 0 019.5-7.89 56.92 56.92 0 0111.11-5.58 56.28 56.28 0 0112.05-3 54.08 54.08 0 0112.4-.3zM10.67 65.05a7.2 7.2 0 001.72-2.82 13.33 13.33 0 00.51-2.59 39 39 0 00.17-4.07V39.76l-2.87-.47v-2.37h11.31v2.37l-2.66.44v13c0 2.3 0 4.16-.11 5.58a15.66 15.66 0 01-.4 3.24 9 9 0 01-3 4.6 11.94 11.94 0 01-5.78 2.43l-1.28-2a6.56 6.56 0 002.39-1.53zm87.44-25.29l-2.53-.47v-2.37h11.52v2.37l-3.21.47v19.63l6.35-.34 2.2-6.69 3.17.41-1 9.26h-19.1V59.8l2.6-.34z" transform="translate(0 -8.25)"/></svg>