<svg xmlns="http://www.w3.org/2000/svg" width="1639.213" height="35.656" viewBox="0 0 1639.213 35.656">
  <g id="Group_28" data-name="Group 28" transform="translate(409.54 -57.599)">
    <g id="Group_27" data-name="Group 27" transform="translate(19.46 74.315)">
      <rect id="Rectangle_8" data-name="Rectangle 8" width="1639.213" height="2.758" transform="translate(-429)" fill="#c5a9a6"/>
    </g>
    <rect id="Rectangle_9" data-name="Rectangle 9" width="157.77" height="9.118" transform="translate(330.77 70.542)" fill="#fff"/>
    <path id="Path_13" data-name="Path 13" d="M89.483,66.428a17.3,17.3,0,0,1,9.138-7.987c6.1-2.089,12.668-.029,16.69,3.336A20.051,20.051,0,0,1,121.9,72.6a17.968,17.968,0,0,1,.551,4.748,13.709,13.709,0,0,0-.319-4.458,17.972,17.972,0,0,0-5.609-9.941,15.6,15.6,0,0,0-14.534-3.3A15.876,15.876,0,0,0,91.562,73.322,17.149,17.149,0,0,0,99.5,88.746a15.107,15.107,0,0,0,13.731.841,14.534,14.534,0,0,0,6.788-6.624,16.679,16.679,0,0,0,1.276-3.394,11.448,11.448,0,0,1-1.112,3.771,16.751,16.751,0,0,1-7.214,7.929,17.247,17.247,0,0,1-15.762.155A18.778,18.778,0,0,1,89.483,83.6a18.7,18.7,0,0,1-7.717,7.823,17.226,17.226,0,0,1-15.752-.155,16.729,16.729,0,0,1-7.223-7.929,11.447,11.447,0,0,1-1.112-3.771,16.175,16.175,0,0,0,1.267,3.394,14.656,14.656,0,0,0,6.8,6.624,15.108,15.108,0,0,0,13.731-.841,17.169,17.169,0,0,0,7.939-15.424A15.891,15.891,0,0,0,76.989,59.649a15.62,15.62,0,0,0-14.544,3.3,18.008,18.008,0,0,0-5.6,9.941,13.935,13.935,0,0,0-.329,4.458,18.868,18.868,0,0,1,.561-4.748,20.111,20.111,0,0,1,6.585-10.821c4.023-3.365,10.589-5.425,16.69-3.336A17.286,17.286,0,0,1,89.483,66.428ZM58.626,78.883c.077-.048.309.948,1.228,2.495a11.464,11.464,0,0,0,5.56,4.767,11.934,11.934,0,0,0,10.7-1.228,13.557,13.557,0,0,0,5.657-12.523,12.682,12.682,0,0,0-9.012-10.463A12.915,12.915,0,0,0,60.985,65.3a15.957,15.957,0,0,0-4.458,12.2,11.234,11.234,0,0,1,.126-3.974,16.9,16.9,0,0,1,4.98-9.486A15.176,15.176,0,0,1,75.6,60.3,14.836,14.836,0,0,1,85.982,73.032,15.727,15.727,0,0,1,78.44,87.557a14.08,14.08,0,0,1-12.871.455,13.261,13.261,0,0,1-6.024-6.131,7.026,7.026,0,0,1-.919-3Zm61.714,0a6.907,6.907,0,0,1-.909,3,13.2,13.2,0,0,1-6.034,6.131,14.08,14.08,0,0,1-12.871-.455,15.72,15.72,0,0,1-7.533-14.524A14.826,14.826,0,0,1,103.369,60.3a15.2,15.2,0,0,1,13.973,3.742,16.879,16.879,0,0,1,4.97,9.486,11.426,11.426,0,0,1,.135,3.974,14.917,14.917,0,0,0-.193-3.752A15.193,15.193,0,0,0,117.99,65.3a12.922,12.922,0,0,0-11.768-3.365,12.682,12.682,0,0,0-9.012,10.463,13.537,13.537,0,0,0,5.657,12.523,11.912,11.912,0,0,0,10.685,1.228,11.374,11.374,0,0,0,5.56-4.767C120.04,79.83,120.272,78.834,120.34,78.883Z" transform="translate(320.443 0)" fill="#c5a9a6"/>
    <path id="Path_14" data-name="Path 14" d="M71.527,63.531a9.929,9.929,0,0,1,5.251-4.584,10.234,10.234,0,0,1,9.6,1.905,11.56,11.56,0,0,1,3.791,6.237,11.02,11.02,0,0,1,.319,2.717,8,8,0,0,0-.184-2.553,10.424,10.424,0,0,0-3.23-5.725,8.937,8.937,0,0,0-8.355-1.886,9.09,9.09,0,0,0-6,7.852,9.869,9.869,0,0,0,4.564,8.877,8.683,8.683,0,0,0,7.9.474,8.376,8.376,0,0,0,3.907-3.81,9.878,9.878,0,0,0,.735-1.944,6.914,6.914,0,0,1-.638,2.166,9.73,9.73,0,0,1-4.158,4.564,9.887,9.887,0,0,1-9.061.087,10.782,10.782,0,0,1-4.448-4.5,10.706,10.706,0,0,1-4.439,4.5,9.888,9.888,0,0,1-9.061-.087,9.65,9.65,0,0,1-4.148-4.564,6.3,6.3,0,0,1-.638-2.166,9.125,9.125,0,0,0,.735,1.944,8.33,8.33,0,0,0,3.907,3.81,8.664,8.664,0,0,0,7.891-.474A9.869,9.869,0,0,0,70.337,67.5a9.09,9.09,0,0,0-6-7.852,8.937,8.937,0,0,0-8.355,1.886,10.424,10.424,0,0,0-3.23,5.725,8,8,0,0,0-.184,2.553,10.452,10.452,0,0,1,.319-2.717,11.62,11.62,0,0,1,3.791-6.237,10.226,10.226,0,0,1,9.593-1.905A9.86,9.86,0,0,1,71.527,63.531ZM53.782,70.7c.039-.019.184.551.706,1.431a6.624,6.624,0,0,0,3.2,2.746,6.841,6.841,0,0,0,6.15-.716,7.765,7.765,0,0,0,3.249-7.194,7.272,7.272,0,0,0-5.183-6.015,7.4,7.4,0,0,0-6.759,1.934,8.782,8.782,0,0,0-2.466,4.864,8.893,8.893,0,0,0-.106,2.156,6.737,6.737,0,0,1,.077-2.292,9.708,9.708,0,0,1,2.862-5.454,8.743,8.743,0,0,1,8.036-2.147,8.516,8.516,0,0,1,5.966,7.32,9.039,9.039,0,0,1-4.332,8.355,8.092,8.092,0,0,1-7.407.261,7.6,7.6,0,0,1-3.462-3.529,4.11,4.11,0,0,1-.532-1.721Zm35.489,0a3.874,3.874,0,0,1-.513,1.721,7.627,7.627,0,0,1-3.472,3.529,8.072,8.072,0,0,1-7.4-.261,9.046,9.046,0,0,1-4.342-8.355,8.516,8.516,0,0,1,5.966-7.32,8.743,8.743,0,0,1,8.036,2.147,9.647,9.647,0,0,1,2.862,5.454A6.737,6.737,0,0,1,90.49,69.9a9.571,9.571,0,0,0-.106-2.156,8.759,8.759,0,0,0-2.456-4.864,7.428,7.428,0,0,0-6.769-1.934,7.3,7.3,0,0,0-5.193,6.015,7.812,7.812,0,0,0,3.259,7.194,6.841,6.841,0,0,0,6.15.716,6.624,6.624,0,0,0,3.2-2.746A11.015,11.015,0,0,0,89.271,70.7Z" transform="translate(286.597 7.451)" fill="#c5a9a6"/>
    <path id="Path_15" data-name="Path 15" d="M87.551,58.845a10.251,10.251,0,0,1,9.593,1.9,11.573,11.573,0,0,1,3.791,6.228,10.019,10.019,0,0,1,.319,2.727,7.652,7.652,0,0,0-.184-2.553,10.394,10.394,0,0,0-3.23-5.725,8.971,8.971,0,0,0-8.355-1.9,9.131,9.131,0,0,0-6,7.862,9.9,9.9,0,0,0,4.564,8.877,8.716,8.716,0,0,0,7.9.483,8.357,8.357,0,0,0,3.9-3.82,8.919,8.919,0,0,0,.745-1.944,6.5,6.5,0,0,1-.648,2.166A9.642,9.642,0,0,1,95.8,77.721a9.917,9.917,0,0,1-9.061.087,10.706,10.706,0,0,1-4.439-4.5,10.782,10.782,0,0,1-4.448,4.5,9.9,9.9,0,0,1-9.051-.087,9.671,9.671,0,0,1-4.158-4.564A6.81,6.81,0,0,1,64,70.991a9.636,9.636,0,0,0,.745,1.944,8.34,8.34,0,0,0,3.907,3.82,8.7,8.7,0,0,0,7.891-.483A9.86,9.86,0,0,0,81.1,67.394a9.121,9.121,0,0,0-5.986-7.862,8.984,8.984,0,0,0-8.365,1.9,10.31,10.31,0,0,0-3.22,5.725,7.873,7.873,0,0,0-.193,2.553,11.112,11.112,0,0,1,.319-2.727,11.573,11.573,0,0,1,3.791-6.228,10.265,10.265,0,0,1,9.6-1.9A9.929,9.929,0,0,1,82.3,63.429,9.86,9.86,0,0,1,87.551,58.845Zm12.494,11.749a3.933,3.933,0,0,1-.532,1.721,7.5,7.5,0,0,1-3.462,3.52,8.059,8.059,0,0,1-7.407-.251,9.076,9.076,0,0,1-4.332-8.355,8.542,8.542,0,0,1,5.966-7.32,8.744,8.744,0,0,1,8.036,2.147,9.647,9.647,0,0,1,2.862,5.454,6.449,6.449,0,0,1,.077,2.292,8.891,8.891,0,0,0-.106-2.156,8.752,8.752,0,0,0-2.466-4.864,7.393,7.393,0,0,0-6.759-1.934,7.272,7.272,0,0,0-5.183,6.015A7.752,7.752,0,0,0,90,74.056a6.839,6.839,0,0,0,6.15.716,6.594,6.594,0,0,0,3.191-2.746,14.642,14.642,0,0,0,.706-1.431ZM65.252,72.026a6.67,6.67,0,0,0,3.2,2.746,6.843,6.843,0,0,0,6.15-.716,7.792,7.792,0,0,0,3.259-7.195,7.282,7.282,0,0,0-5.193-6.015,7.4,7.4,0,0,0-6.759,1.934,8.666,8.666,0,0,0-2.456,4.864,9.315,9.315,0,0,0-.116,2.156,6.754,6.754,0,0,1,.077-2.292,9.647,9.647,0,0,1,2.862-5.454,8.743,8.743,0,0,1,8.036-2.147,8.528,8.528,0,0,1,5.966,7.32,9.058,9.058,0,0,1-4.332,8.355,8.06,8.06,0,0,1-7.407.251,7.542,7.542,0,0,1-3.462-3.52,3.822,3.822,0,0,1-.522-1.721A15.711,15.711,0,0,0,65.252,72.026Z" transform="translate(379.921 6.577)" fill="#c5a9a6"/>
  </g>
</svg>
