<?xml version="1.0" encoding="utf-8"?>
<!-- Generator: Adobe Illustrator 24.0.0, SVG Export Plug-In . SVG Version: 6.00 Build 0)  -->
<svg version="1.1" id="Layer_1" xmlns="http://www.w3.org/2000/svg" xmlns:xlink="http://www.w3.org/1999/xlink" x="0px" y="0px"
	 viewBox="0 0 500 500" style="enable-background:new 0 0 500 500;" xml:space="preserve">
<style type="text/css">
	.st0{fill:#C5A9A6;}
</style>
<g id="Group_28" transform="translate(409.54 -57.599)">
	<path id="Path_13" class="st0" d="M-160.4,275.9c7-12.9,18.4-22.9,32.1-28.1c21.5-7.3,44.6-0.1,58.7,11.7
		c11.6,9.9,19.8,23.2,23.2,38.1c1.4,5.5,2,11.1,1.9,16.7c0.5-5.3,0.1-10.6-1.1-15.7c-2.6-13.5-9.5-25.8-19.7-35
		c-14-12.3-33.2-16.7-51.1-11.6c-20.6,7.5-34.9,26.3-36.7,48.1c-1.2,21.8,9.5,42.6,27.9,54.3c14.7,8.7,32.7,9.8,48.3,3
		c10.3-4.9,18.7-13.1,23.9-23.3c1.9-3.8,3.4-7.8,4.5-11.9c-0.5,4.6-1.9,9.1-3.9,13.3c-5.2,11.8-14.1,21.6-25.4,27.9
		c-17.3,9.1-38,9.3-55.4,0.5c-11.6-6.3-21.1-15.8-27.2-27.5c-6.1,11.7-15.5,21.3-27.1,27.5c-17.5,8.8-38.1,8.6-55.4-0.5
		c-11.3-6.3-20.2-16.1-25.4-27.9c-2.1-4.2-3.4-8.7-3.9-13.3c1,4.1,2.5,8.1,4.5,11.9c5.2,10.2,13.6,18.4,23.9,23.3
		c15.6,6.8,33.6,5.7,48.3-3c18.4-11.7,29.1-32.5,27.9-54.3c-1.7-21.8-16.1-40.6-36.7-48.1c-17.9-5-37.2-0.7-51.2,11.6
		c-10.2,9.2-17.1,21.5-19.7,35c-1.2,5.1-1.6,10.4-1.2,15.7c-0.1-5.6,0.6-11.2,2-16.7c3.4-14.9,11.5-28.2,23.2-38.1
		c14.2-11.8,37.2-19.1,58.7-11.7C-178.8,253-167.4,263-160.4,275.9z M-269,319.8c0.3-0.2,1.1,3.3,4.3,8.8
		c4.5,7.6,11.4,13.5,19.6,16.8c12.5,4.6,26.5,3,37.6-4.3c14.1-10,21.8-26.8,19.9-44.1c-2.4-17.5-14.8-31.9-31.7-36.8
		c-14.9-3.3-30.5,1.2-41.4,11.9c-11.1,11.4-16.8,27-15.7,42.9c-0.7-4.6-0.5-9.4,0.4-14c2.1-12.7,8.2-24.4,17.5-33.4
		c13.1-12.4,31.6-17.4,49.1-13.2c20.1,6.2,34.5,23.9,36.5,44.8c1.4,20.7-8.8,40.4-26.5,51.1c-13.9,7.8-30.8,8.4-45.3,1.6
		c-9.3-4.6-16.7-12.2-21.2-21.6C-267.6,327.1-268.7,323.5-269,319.8L-269,319.8z M-51.9,319.8c-0.2,3.7-1.3,7.3-3.2,10.6
		c-4.5,9.4-11.9,17-21.2,21.6c-14.5,6.8-31.3,6.2-45.3-1.6c-17.7-10.7-27.9-30.4-26.5-51.1c2-20.9,16.4-38.6,36.5-44.8
		c17.6-4.2,36,0.8,49.2,13.2c9.3,8.9,15.4,20.6,17.5,33.4c1,4.6,1.1,9.3,0.5,14c0.3-4.4,0.1-8.8-0.7-13.2c-1.7-11.3-7-21.7-15-29.7
		c-10.9-10.6-26.5-15.1-41.4-11.8c-16.9,4.9-29.3,19.4-31.7,36.8c-1.9,17.2,5.8,34.1,19.9,44.1c11.1,7.3,25.1,8.9,37.6,4.3
		c8.2-3.3,15.1-9.2,19.6-16.8C-52.9,323.1-52.1,319.6-51.9,319.8z"/>
	<path id="Path_14" class="st0" d="M-342.6,292c4-7.4,10.6-13.2,18.5-16.1c11.7-3.6,24.4-1.1,33.8,6.7c6.7,5.7,11.4,13.4,13.3,21.9
		c0.8,3.1,1.1,6.3,1.1,9.6c0.3-3,0-6-0.6-9c-1.5-7.8-5.5-14.8-11.4-20.1c-8-7.1-19.1-9.6-29.4-6.6c-11.9,4.2-20.1,15.1-21.1,27.6
		c-0.7,12.5,5.4,24.5,16.1,31.2c8.5,5,18.8,5.6,27.8,1.7c5.9-2.8,10.8-7.5,13.7-13.4c1.1-2.2,2-4.5,2.6-6.8
		c-0.3,2.6-1.1,5.2-2.2,7.6c-3,6.8-8.1,12.4-14.6,16.1c-9.9,5.3-21.8,5.4-31.9,0.3c-6.7-3.6-12.1-9.1-15.6-15.8
		c-3.5,6.7-8.9,12.2-15.6,15.8c-10,5.1-21.9,4.9-31.9-0.3c-6.5-3.6-11.6-9.3-14.6-16.1c-1.2-2.4-2-5-2.2-7.6
		c0.6,2.4,1.5,4.7,2.6,6.8c2.9,5.9,7.8,10.6,13.7,13.4c9,3.9,19.3,3.3,27.8-1.7c10.6-6.7,16.8-18.7,16.1-31.2
		c-1-12.6-9.2-23.4-21.1-27.6c-10.3-2.9-21.4-0.4-29.4,6.6c-5.9,5.3-9.8,12.4-11.4,20.1c-0.7,2.9-0.9,6-0.6,9c0-3.2,0.3-6.4,1.1-9.6
		c2-8.6,6.6-16.2,13.3-21.9c9.4-7.8,22.1-10.3,33.7-6.7C-353.2,278.8-346.6,284.5-342.6,292z M-405.1,317.2c0.1-0.1,0.6,1.9,2.5,5
		c2.6,4.4,6.6,7.8,11.3,9.7c7.2,2.7,15.2,1.7,21.6-2.5c8.1-5.7,12.5-15.4,11.4-25.3c-1.4-10-8.5-18.3-18.2-21.2
		c-8.6-1.9-17.5,0.7-23.8,6.8c-4.6,4.6-7.7,10.6-8.7,17.1c-0.4,2.5-0.6,5.1-0.4,7.6c-0.4-2.7-0.3-5.4,0.3-8.1
		c1.2-7.3,4.7-14.1,10.1-19.2c7.5-7.1,18.2-10,28.3-7.6c11.5,3.6,19.8,13.7,21,25.8c0.8,11.9-5.1,23.2-15.2,29.4
		c-8,4.5-17.7,4.8-26.1,0.9c-5.3-2.7-9.6-7-12.2-12.4C-404.3,321.4-404.9,319.3-405.1,317.2L-405.1,317.2z M-280.2,317.2
		c-0.1,2.1-0.7,4.2-1.8,6.1c-2.6,5.4-6.9,9.7-12.2,12.4c-8.3,3.9-18,3.6-26-0.9c-10.2-6.2-16.1-17.5-15.3-29.4
		c1.2-12,9.4-22.2,21-25.8c10.1-2.4,20.7,0.4,28.3,7.6c5.4,5.1,8.9,11.9,10.1,19.2c0.6,2.6,0.7,5.4,0.3,8c0.2-2.5,0-5.1-0.4-7.6
		c-1-6.5-4-12.5-8.6-17.1c-6.3-6.1-15.2-8.7-23.8-6.8c-9.7,2.8-16.9,11.1-18.3,21.2c-1,9.9,3.3,19.6,11.5,25.3
		c6.4,4.2,14.4,5.2,21.6,2.5c4.7-1.9,8.7-5.3,11.3-9.7C-281.7,320.6-280.9,318.9-280.2,317.2z"/>
	<path id="Path_15" class="st0" d="M42,272.4c11.7-3.6,24.4-1.1,33.7,6.7c6.7,5.7,11.4,13.4,13.3,21.9c0.8,3.1,1.2,6.4,1.1,9.6
		c0.3-3,0.1-6-0.6-9c-1.5-7.8-5.5-14.8-11.4-20.1c-8-7.1-19.1-9.6-29.4-6.7c-11.9,4.3-20.1,15.1-21.1,27.7
		c-0.7,12.5,5.5,24.5,16.1,31.2c8.5,5,18.8,5.6,27.8,1.7c5.9-2.8,10.8-7.5,13.7-13.4c1.1-2.2,2-4.5,2.6-6.8
		c-0.3,2.7-1.1,5.2-2.3,7.6c-3,6.8-8.1,12.5-14.6,16.1c-10,5.2-21.8,5.3-31.9,0.3c-6.7-3.6-12.1-9.1-15.6-15.8
		c-3.5,6.7-9,12.2-15.6,15.8c-10,5-21.9,4.9-31.8-0.3c-6.5-3.6-11.6-9.2-14.6-16.1c-1.2-2.4-1.9-5-2.3-7.6c0.6,2.4,1.5,4.7,2.6,6.8
		c2.9,5.9,7.8,10.6,13.7,13.4c9,3.9,19.3,3.3,27.8-1.7c10.6-6.7,16.7-18.7,16-31.2c-1-12.6-9.2-23.4-21.1-27.7
		c-10.3-2.9-21.4-0.4-29.4,6.7c-5.9,5.3-9.8,12.4-11.3,20.1c-0.7,2.9-0.9,6-0.7,9c0-3.2,0.4-6.5,1.1-9.6c2-8.5,6.6-16.2,13.3-21.9
		c9.4-7.8,22.1-10.3,33.8-6.7c7.9,3,14.5,8.7,18.5,16.1C27.5,281.1,34.1,275.4,42,272.4z M86,313.7c-0.1,2.1-0.8,4.2-1.9,6.1
		c-2.5,5.4-6.8,9.7-12.2,12.4c-8.3,4-18,3.6-26.1-0.9c-10.2-6.2-16-17.5-15.2-29.4c1.2-12,9.5-22.2,21-25.8
		c10.1-2.4,20.7,0.4,28.3,7.6c5.4,5.1,8.9,11.9,10.1,19.2c0.6,2.6,0.7,5.4,0.3,8.1c0.2-2.5,0.1-5.1-0.4-7.6c-1-6.5-4-12.5-8.7-17.1
		c-6.3-6.1-15.2-8.7-23.8-6.8c-9.7,2.8-16.9,11.1-18.2,21.2c-1.1,9.9,3.3,19.6,11.5,25.3c6.4,4.2,14.4,5.2,21.6,2.5
		c4.7-1.9,8.6-5.3,11.2-9.7C84.4,317.1,85.2,315.5,86,313.7L86,313.7z M-36.4,318.8c2.6,4.4,6.6,7.7,11.3,9.7
		c7.2,2.7,15.2,1.7,21.6-2.5c8.1-5.7,12.5-15.4,11.5-25.3c-1.4-10-8.5-18.3-18.3-21.2c-8.6-1.9-17.5,0.7-23.8,6.8
		c-4.6,4.6-7.7,10.6-8.6,17.1c-0.4,2.5-0.6,5-0.4,7.6c-0.4-2.7-0.3-5.4,0.3-8.1c1.2-7.3,4.7-14.1,10.1-19.2
		c7.5-7.1,18.2-10,28.3-7.6c11.5,3.6,19.8,13.7,21,25.8c0.8,11.9-5.1,23.2-15.2,29.4c-8,4.5-17.7,4.8-26.1,0.9
		c-5.3-2.6-9.6-7-12.2-12.4c-1.1-1.8-1.7-3.9-1.8-6.1C-38.1,315.5-37.3,317.1-36.4,318.8z"/>
</g>
</svg>
