<svg id="OBJECTS" xmlns="http://www.w3.org/2000/svg" viewBox="0 0 123.24 89.36"><defs><style>.cls-1{fill:#222544;}.cls-2{fill:#525278;}</style></defs><title>logo</title><path class="cls-1" d="M80.71,23.57q10.46-.27,20.91-.41c7-.07,13.94-.2,20.91-.21h.62v.62c0,9.88.13,19.76.07,29.65s0,19.77-.18,29.65v.51h-.5L108,83.18l-14.56-.31L108,82.55l14.56-.19-.5.51c-.16-9.88-.12-19.77-.18-29.65s.05-19.77.07-29.65l.61.62c-7,0-13.94-.15-20.91-.22S87.68,23.75,80.71,23.57Z" transform="translate(0 -8.25)"/><path class="cls-1" d="M28.52,82.87l-13.91.29L.7,83.35H.23v-.49C.17,77.93.09,73,.09,68L0,53.22C0,43.33.05,33.45.07,23.57v-.64H.7c7.62,0,15.24.13,22.86.21s15.24.24,22.85.43c-7.61.18-15.23.35-22.85.42S8.32,24.2.7,24.2l.64-.63c0,9.88.11,19.76,0,29.65L1.32,68c0,4.95-.08,9.89-.13,14.83L.7,82.39l13.91.18Z" transform="translate(0 -8.25)"/><path class="cls-1" d="M58.91,31.58,64,31.43c2.14,0,3.57.46,4.28,1.38A1.83,1.83,0,0,1,68.86,34a1.6,1.6,0,0,1-.39,1.07c-.61.76-1.76,1.15-3.44,1.15a10.58,10.58,0,0,1-7.72-3.37,17.34,17.34,0,0,0-13,9.1,20.11,20.11,0,0,0-2.83,9.87,17,17,0,0,0,.84,5.28q2.53,7.35,10.94,7.34a18.65,18.65,0,0,0,13-5q5.51-5.05,5.5-10a4.8,4.8,0,0,0-2-3.94,8.68,8.68,0,0,0-4.29-1.83,33,33,0,0,0-3.82-.27,30.93,30.93,0,0,0-4.06.35,11.52,11.52,0,0,0-4.93,2A6.12,6.12,0,0,0,49.73,51q0,3.29,5.13,6a1.12,1.12,0,0,1,.65,1.18c-.08.49-.3.63-.65.42a17.2,17.2,0,0,1-6.81-5.89,7.06,7.06,0,0,1-1.38-3.59,6.11,6.11,0,0,1,.39-2.37c.61-1.79,2.14-3.29,4.59-4.52A20.83,20.83,0,0,1,61,40.38H74.52q4,0,9.79-2.68a10.53,10.53,0,0,0,4.13-3.06,3.57,3.57,0,0,0,.15-3.75,1.79,1.79,0,0,1-.38-1.07.38.38,0,0,1,.42-.3.65.65,0,0,1,.57.38,6.88,6.88,0,0,1,1.08,3.48,5.07,5.07,0,0,1-1,3c-1.27,1.94-3.44,3.49-6.5,4.67a26.35,26.35,0,0,1-9.49,1.76h-.38a7.45,7.45,0,0,1,2.91,6c0,3.42-2,6.93-6,10.56a21.78,21.78,0,0,1-7.27,4.36,26.1,26.1,0,0,1-9.33,1.68q-11.85,0-16.75-6.89a11.55,11.55,0,0,1-2.45-6.65,17.32,17.32,0,0,1,1-6q2.67-7.26,10.78-11.24a31,31,0,0,1,10.48-2.91,12.31,12.31,0,0,1-2.1-7.5q0-4.5,3.94-8.49a23.33,23.33,0,0,1,9-5.77A29.58,29.58,0,0,1,77,8.25a13.38,13.38,0,0,1,6.77,1.61A5.47,5.47,0,0,1,86.6,15a6.17,6.17,0,0,1-1.37,3.94,3.94,3.94,0,0,1-3.1,1.72,3.73,3.73,0,0,1-2.76-1,3.51,3.51,0,0,1-1-2.56,3.45,3.45,0,0,1,3.44-3.52,3.87,3.87,0,0,1,1.76.42,1.74,1.74,0,0,1,1,1,5.79,5.79,0,0,0,.07-.92,2.93,2.93,0,0,0-1.37-2.6,7.28,7.28,0,0,0-4.36-1.07,18.78,18.78,0,0,0-6.81,1.56,26,26,0,0,0-7.34,4.56,21.12,21.12,0,0,0-5.44,7.34,11.12,11.12,0,0,0-1.07,4.36A8.29,8.29,0,0,0,58.91,31.58ZM67.56,34c0-.92-1.89-1.37-5.66-1.37-.77,0-1.56,0-2.38.07A6,6,0,0,0,64.46,35C66.52,35,67.56,34.62,67.56,34Z" transform="translate(0 -8.25)"/><path class="cls-2" d="M48.92,78.62c-3.25-.51-2.76,6.75-1.74,9.61C49.24,85.64,52.36,79.15,48.92,78.62Z" transform="translate(0 -8.25)"/><path class="cls-2" d="M62.64,82.3c3-2.17,7.67-8.35,4.85-10C64.49,70.61,62.42,78.87,62.64,82.3Z" transform="translate(0 -8.25)"/><path class="cls-2" d="M62.88,89.94c1.64-3.08-5.43-4.81-9.16-4.82C55.44,87.78,61.05,93.36,62.88,89.94Z" transform="translate(0 -8.25)"/><path class="cls-2" d="M77.44,87.37c2.2-2.09-4.1-5.24-7.69-6.27C70.68,84.14,74.62,90.07,77.44,87.37Z" transform="translate(0 -8.25)"/><path class="cls-2" d="M88.39,81c-.25-2.81-7.44-1.34-10.31-.16C81.05,82.53,88.76,85.05,88.39,81Z" transform="translate(0 -8.25)"/><path class="cls-2" d="M79.56,80.84a68.19,68.19,0,0,0-12.29.91A63.94,63.94,0,0,0,55.4,84.91a64.61,64.61,0,0,0-11,5.35,68.06,68.06,0,0,0-9.9,7.35A54,54,0,0,1,44,89.72a56.92,56.92,0,0,1,11.11-5.58,56.28,56.28,0,0,1,12.05-3A54.08,54.08,0,0,1,79.56,80.84Z" transform="translate(0 -8.25)"/><path class="cls-2" d="M10.67,65.05a7.2,7.2,0,0,0,1.72-2.82,13.33,13.33,0,0,0,.51-2.59,39,39,0,0,0,.17-4.07V39.76l-2.87-.47V36.92H21.51v2.37l-2.66.44v13c0,2.3,0,4.16-.11,5.58a15.66,15.66,0,0,1-.4,3.24,9,9,0,0,1-3,4.6,11.94,11.94,0,0,1-5.78,2.43l-1.28-2A6.56,6.56,0,0,0,10.67,65.05Z" transform="translate(0 -8.25)"/><path class="cls-2" d="M98.11,39.76l-2.53-.47V36.92H107.1v2.37l-3.21.47V59.39l6.35-.34,2.2-6.69,3.17.41-1,9.26H95.51V59.8l2.6-.34Z" transform="translate(0 -8.25)"/></svg>