<svg id="Layer_1" data-name="Layer 1" xmlns="http://www.w3.org/2000/svg" xmlns:xlink="http://www.w3.org/1999/xlink" viewBox="0 0 668.21 638.62"><defs><style>.cls-1{fill:url(#linear-gradient);}.cls-2{fill:url(#linear-gradient-2);}.cls-3{fill:url(#linear-gradient-3);}</style><linearGradient id="linear-gradient" y1="277.83" x2="535.8" y2="277.83" gradientUnits="userSpaceOnUse"><stop offset="0" stop-color="#1e1e1e"/><stop offset="1"/></linearGradient><linearGradient id="linear-gradient-2" y1="609.12" x2="535.8" y2="609.12" xlink:href="#linear-gradient"/><linearGradient id="linear-gradient-3" x1="215.3" y1="438.91" x2="668.21" y2="438.91" xlink:href="#linear-gradient"/></defs><title>logo</title><path class="cls-1" d="M535.24,37.24q-1.12-15.55-16.4-26.4T486.61,0a91.84,91.84,0,0,0-34.74,7.23Q384.06,36.14,335.15,161.74L287.91,280.68a255.64,255.64,0,0,1-30.29,1.67q-16.41,0-38.36-6.12t-34.73-21.39q-12.79-15.28-16.68-29.74T164,200.37A74.24,74.24,0,0,1,167.3,179q13.88-47.24,49.46-70a102.46,102.46,0,0,1,44.47-16.12A58,58,0,0,0,274,89.48c3.7-1.47,5.19-3.14,4.45-5s-2.78-2.78-6.12-2.78a56,56,0,0,0-12.22,1.67Q214.53,93.93,184.8,114.5t-38.35,40.57q-8.61,20-8.61,37.24,0,32.81,23.34,58.91,17.79,20,47.8,31.68t65,11.68h6.12q-33.36,68.35-58.36,107.27a280,280,0,0,0-52.25-4.45q-80.59,0-127.83,27.79Q0,449.1,0,480.77T31.68,528q18.34,9.45,42,9.45t54.19-15Q179,498,226.21,431.86q46.12,8.89,73.65,15.84t65,23.34q37.51,16.4,58.63,35t28.9,40.85c1.05,3,2,5.89,2.79,8.76,1.2-1.57,2.42-3.12,3.72-4.61,2.91-3.35,6.15-6.28,8.58-10q-14.06-29.51-42.32-51.41-72.26-55.56-182.3-82.81L254.56,388q15-27.22,48.91-95.6,58.9-10,114.22-49.19t86.7-92Q535.79,98.38,535.8,50C535.8,46,535.6,41.69,535.24,37.24ZM118.94,506.89q-30.57,14.45-56.69,14.45a68,68,0,0,1-34.74-9.17Q11.67,503,11.67,488.55A28.31,28.31,0,0,1,13.9,478q11.1-30.56,75-47.24a225.43,225.43,0,0,1,59.47-8.34,255.38,255.38,0,0,1,56.14,6.12Q165.06,484.67,118.94,506.89Zm331.54-314.3q-62,67.53-139.23,84.76,22.78-47.24,52-103.11t60.86-95.32Q464.64,29.47,493,29.46q19.44,0,19.45,21.12Q512.45,125.07,450.48,192.59Z"/><path class="cls-2" d="M459.82,596a69,69,0,0,1-6,23.43q-6.39,13.62-6.39,16.4t3.34,2.78q3.33,0,11.11-3.89t13.62-14.17q5.83-10.3,5.84-25.29a89.15,89.15,0,0,0-1.55-15.65A213.56,213.56,0,0,1,459.82,596Z"/><path class="cls-3" d="M640.71,272.72l-14.6,2.72Q600,320.59,575.87,397q-9.18,28.86-25.81,66.38a521.5,521.5,0,0,1-37,69.43q-27.49,42.78-73.16,70.45T356.54,636a292.72,292.72,0,0,1-39.38,2.38,143.68,143.68,0,0,1-45.5-7.81Q235,618.34,221.41,590.5q-6.1-12.9-6.11-30.21t9.17-40.74q6.45-15.61,22.75-29.2t25.46-13.92c2.72-.22,4.07.23,4.07,1.36q-.33,1.35-4.41,3.39-10.87,4.43-24.11,19.35t-17.48,30.05q-4.25,15.1-4.24,23.26,0,24.78,13.24,40.06a98.34,98.34,0,0,0,22.74,18.33,89.75,89.75,0,0,0,29.2,11.21q23.08,4.41,36.67,4.41a96.79,96.79,0,0,0,24.1-2.72,166.42,166.42,0,0,0,44.65-17,233.86,233.86,0,0,0,38.2-26,247.63,247.63,0,0,0,33.1-34.8q16.45-20.71,27.67-37.69T519.85,469q20.37-38.7,41.76-88.95,26.8-59.76,54.32-103.22-47.2,7.81-96.08,33.95a147.4,147.4,0,0,0-42.44,33.62q-22.76,25.8-22.75,55.34,0,16,7.64,24.78t16.12,8.83a54.67,54.67,0,0,0,18.68-3.73,45.42,45.42,0,0,0,18.33-12.91,50.93,50.93,0,0,0,12.9-34.29q0-8.14-2.37-10.86-4.08-2.72-.68-5.1,3.74-2,7.81,2.38a42,42,0,0,1,3.39,17.49q0,10-7.47,22.91-12.56,21.39-34.63,29.2A61,61,0,0,1,475,441.8a42.67,42.67,0,0,1-27.5-9.85q-15.61-12.9-15.62-34.63,0-27.49,19.69-52.62a132.56,132.56,0,0,1,35.14-31.92,273.07,273.07,0,0,1,45.67-22.41q41.07-15.94,89.29-22.4a112,112,0,0,1,12.22-16q8.15-9.16,13.58-10.87a31.12,31.12,0,0,1,8.83-1.69q11.88,0,11.88,10.18-.33,9.17-7.47,14.09T640.71,272.72Zm10.53-22.41a4.26,4.26,0,0,0-1.53.34,11.38,11.38,0,0,0-2.38,1.53c-1,.79-2,1.53-2.88,2.21a23.62,23.62,0,0,0-3.23,3.05c-1.25,1.36-2.26,2.44-3.05,3.23s-1.87,1.92-3.23,3.39-2.26,2.44-2.72,2.89q23.43-4.08,23.09-12.56Q654.64,250.31,651.24,250.31Z"/></svg>